<svg width="32" height="32" viewBox="0 0 32 32" xmlns="http://www.w3.org/2000/svg">
<path d="M15.6667 24C21 24 22.3333 18.6666 22.3333 18.6666H9C9 18.6666 10.3333 24 15.6667 24Z" />
<path d="M16.3333 2.66663C8.98133 2.66663 3 8.64796 3 16C3 23.352 8.98133 29.3333 16.3333 29.3333C23.6853 29.3333 29.6667 23.352 29.6667 16C29.6667 8.64796 23.6853 2.66663 16.3333 2.66663ZM16.3333 26.6666C10.452 26.6666 5.66667 21.8813 5.66667 16C5.66667 10.1186 10.452 5.33329 16.3333 5.33329C22.2147 5.33329 27 10.1186 27 16C27 21.8813 22.2147 26.6666 16.3333 26.6666Z" />
<path d="M17.6667 16L20.3333 16.016C20.3493 15.4 20.592 14.6667 21.6667 14.6667C22.7413 14.6667 22.984 15.4 23 16H25.6667C25.6667 14.392 24.6013 12 21.6667 12C18.732 12 17.6667 14.392 17.6667 16ZM11 14.6667C12.0747 14.6667 12.3173 15.4 12.3333 16H15C15 14.392 13.9347 12 11 12C8.06533 12 7 14.392 7 16L9.66667 16.016C9.68267 15.4 9.92533 14.6667 11 14.6667Z" />
</svg>
