<svg width="32" height="32" viewBox="0 0 32 32" xmlns="http://www.w3.org/2000/svg">
<path d="M26.6667 4H5.33335C4.62611 4 3.94783 4.28095 3.44774 4.78105C2.94764 5.28115 2.66669 5.95942 2.66669 6.66667V12C2.66669 12.7072 2.94764 13.3855 3.44774 13.8856C3.94783 14.3857 4.62611 14.6667 5.33335 14.6667H26.6667C27.3739 14.6667 28.0522 14.3857 28.5523 13.8856C29.0524 13.3855 29.3334 12.7072 29.3334 12V6.66667C29.3334 5.95942 29.0524 5.28115 28.5523 4.78105C28.0522 4.28095 27.3739 4 26.6667 4ZM5.33335 12V6.66667H26.6667V12H5.33335ZM26.6667 17.3333H5.33335C4.62611 17.3333 3.94783 17.6143 3.44774 18.1144C2.94764 18.6145 2.66669 19.2928 2.66669 20V25.3333C2.66669 26.0406 2.94764 26.7189 3.44774 27.219C3.94783 27.719 4.62611 28 5.33335 28H26.6667C27.3739 28 28.0522 27.719 28.5523 27.219C29.0524 26.7189 29.3334 26.0406 29.3334 25.3333V20C29.3334 19.2928 29.0524 18.6145 28.5523 18.1144C28.0522 17.6143 27.3739 17.3333 26.6667 17.3333ZM5.33335 25.3333V20H26.6667V25.3333H5.33335Z"/>
<path d="M22.6667 8H25.3334V10.6667H22.6667V8ZM18.6667 8H21.3334V10.6667H18.6667V8ZM22.6667 21.3333H25.3334V24H22.6667V21.3333ZM18.6667 21.3333H21.3334V24H18.6667V21.3333Z"/>
</svg>
