<svg width="32" height="32" viewBox="0 0 32 32" xmlns="http://www.w3.org/2000/svg">
<path d="M13.3334 24C15.7 23.9995 17.9984 23.2072 19.8627 21.7493L25.724 27.6107L27.6094 25.7253L21.748 19.864C23.2067 17.9995 23.9995 15.7006 24 13.3333C24 7.452 19.2147 2.66666 13.3334 2.66666C7.45202 2.66666 2.66669 7.452 2.66669 13.3333C2.66669 19.2147 7.45202 24 13.3334 24ZM13.3334 5.33333C17.7454 5.33333 21.3334 8.92133 21.3334 13.3333C21.3334 17.7453 17.7454 21.3333 13.3334 21.3333C8.92135 21.3333 5.33335 17.7453 5.33335 13.3333C5.33335 8.92133 8.92135 5.33333 13.3334 5.33333Z"/>
<path d="M15.216 11.448C15.7213 11.9547 16 12.624 16 13.3333H18.6666C18.6678 12.6326 18.5301 11.9385 18.2614 11.2913C17.9927 10.6441 17.5984 10.0566 17.1013 9.56267C15.0826 7.54667 11.5826 7.54667 9.56531 9.56267L11.448 11.4507C12.4613 10.44 14.208 10.4427 15.216 11.448Z"/>
</svg>
