<svg width="23" height="15" viewBox="0 0 23 15" fill="none" xmlns="http://www.w3.org/2000/svg">
<path d="M21.6953 2.38281C21.4609 1.44531 20.7188 0.703125 19.8203 0.46875C18.1406 0 11.5 0 11.5 0C11.5 0 4.82031 0 3.14062 0.46875C2.24219 0.703125 1.5 1.44531 1.26562 2.38281C0.796875 4.02344 0.796875 7.53906 0.796875 7.53906C0.796875 7.53906 0.796875 11.0156 1.26562 12.6953C1.5 13.6328 2.24219 14.3359 3.14062 14.5703C4.82031 15 11.5 15 11.5 15C11.5 15 18.1406 15 19.8203 14.5703C20.7188 14.3359 21.4609 13.6328 21.6953 12.6953C22.1641 11.0156 22.1641 7.53906 22.1641 7.53906C22.1641 7.53906 22.1641 4.02344 21.6953 2.38281ZM9.3125 10.7031V4.375L14.8594 7.53906L9.3125 10.7031Z" fill="#333333"/>
</svg>
